<svg xmlns="http://www.w3.org/2000/svg" viewBox="0 0 800 500" role="img" aria-label="Missões e feiras">
<defs><linearGradient id="bg" x1="0" y1="0" x2="1" y2="1"><stop stop-color="#07010e"/><stop offset=".55" stop-color="#23073b"/><stop offset="1" stop-color="#071d38"/></linearGradient><radialGradient id="glow"><stop stop-color="#7830ff" stop-opacity=".55"/><stop offset="1" stop-color="#000" stop-opacity="0"/></radialGradient></defs>
<rect width="800" height="500" rx="28" fill="url(#bg)"/><circle cx="690" cy="60" r="230" fill="url(#glow)"/><path d="M130 270h540l-75 110H210z" fill="#20112e" stroke="#ffd700" stroke-width="5"/><rect x="260" y="110" width="290" height="160" rx="12" fill="#102546" stroke="#00b7ff" stroke-width="4"/><g fill="#ffd700"><rect x="285" y="135" width="35" height="35" rx="4"/><rect x="343" y="135" width="35" height="35" rx="4"/><rect x="401" y="135" width="35" height="35" rx="4"/><rect x="459" y="135" width="35" height="35" rx="4"/><rect x="285" y="190" width="35" height="35" rx="4"/><rect x="343" y="190" width="35" height="35" rx="4"/><rect x="401" y="190" width="35" height="35" rx="4"/><rect x="459" y="190" width="35" height="35" rx="4"/></g><path d="M110 405c55 25 110 25 165 0s110-25 165 0 110 25 165 0 110-25 165 0" fill="none" stroke="#00b7ff" stroke-width="11"/>
<rect x="0" y="405" width="800" height="95" fill="#05010a" fill-opacity=".86"/><text x="42" y="447" fill="#ffd700" font-size="28" font-family="Arial, sans-serif" font-weight="700">Missões e feiras</text><text x="42" y="478" fill="#fff" font-size="18" font-family="Arial, sans-serif">Conexões comerciais internacionais</text></svg>