<svg xmlns="http://www.w3.org/2000/svg" viewBox="0 0 800 500" role="img" aria-label="Ceilândia e Samambaia">
<defs><linearGradient id="bg" x1="0" y1="0" x2="1" y2="1"><stop stop-color="#07010e"/><stop offset=".55" stop-color="#23073b"/><stop offset="1" stop-color="#071d38"/></linearGradient><radialGradient id="glow"><stop stop-color="#7830ff" stop-opacity=".55"/><stop offset="1" stop-color="#000" stop-opacity="0"/></radialGradient></defs>
<rect width="800" height="500" rx="28" fill="url(#bg)"/><circle cx="690" cy="60" r="230" fill="url(#glow)"/><path d="M80 360h640" stroke="#ffd700" stroke-width="8"/><rect x="115" y="190" width="120" height="170" rx="10" fill="#1b1434" stroke="#00b7ff" stroke-width="4"/><rect x="260" y="125" width="145" height="235" rx="10" fill="#202a4d" stroke="#ffd700" stroke-width="4"/><rect x="435" y="165" width="105" height="195" rx="10" fill="#2b163d" stroke="#00b7ff" stroke-width="4"/><rect x="565" y="220" width="115" height="140" rx="10" fill="#172242" stroke="#ffd700" stroke-width="4"/><g fill="#fff" opacity=".8"><rect x="130" y="215" width="14" height="18"/><rect x="162" y="215" width="14" height="18"/><rect x="194" y="215" width="14" height="18"/><rect x="130" y="250" width="14" height="18"/><rect x="162" y="250" width="14" height="18"/><rect x="194" y="250" width="14" height="18"/><rect x="130" y="285" width="14" height="18"/><rect x="162" y="285" width="14" height="18"/><rect x="194" y="285" width="14" height="18"/><rect x="130" y="320" width="14" height="18"/><rect x="162" y="320" width="14" height="18"/><rect x="194" y="320" width="14" height="18"/></g>
<rect x="0" y="405" width="800" height="95" fill="#05010a" fill-opacity=".86"/><text x="42" y="447" fill="#ffd700" font-size="28" font-family="Arial, sans-serif" font-weight="700">Ceilândia e Samambaia</text><text x="42" y="478" fill="#fff" font-size="18" font-family="Arial, sans-serif">Comunidade, serviços e oportunidades</text></svg>