<svg xmlns="http://www.w3.org/2000/svg" viewBox="0 0 800 500" role="img" aria-label="Lançamentos e imóveis">
<defs><linearGradient id="bg" x1="0" y1="0" x2="1" y2="1"><stop stop-color="#07010e"/><stop offset=".55" stop-color="#23073b"/><stop offset="1" stop-color="#071d38"/></linearGradient><radialGradient id="glow"><stop stop-color="#7830ff" stop-opacity=".55"/><stop offset="1" stop-color="#000" stop-opacity="0"/></radialGradient></defs>
<rect width="800" height="500" rx="28" fill="url(#bg)"/><circle cx="690" cy="60" r="230" fill="url(#glow)"/><rect x="110" y="92" width="250" height="210" rx="16" fill="#172242" stroke="#ffd700" stroke-width="4"/><rect x="390" y="135" width="260" height="167" rx="16" fill="#281238" stroke="#00b7ff" stroke-width="4"/><g fill="#ffd700"><rect x="135" y="120" width="28" height="28" rx="4"/><rect x="190" y="120" width="28" height="28" rx="4"/><rect x="245" y="120" width="28" height="28" rx="4"/><rect x="300" y="120" width="28" height="28" rx="4"/><rect x="135" y="172" width="28" height="28" rx="4"/><rect x="190" y="172" width="28" height="28" rx="4"/><rect x="245" y="172" width="28" height="28" rx="4"/><rect x="300" y="172" width="28" height="28" rx="4"/><rect x="135" y="224" width="28" height="28" rx="4"/><rect x="190" y="224" width="28" height="28" rx="4"/><rect x="245" y="224" width="28" height="28" rx="4"/><rect x="300" y="224" width="28" height="28" rx="4"/></g><path d="M70 320h660" stroke="#fff" stroke-width="8" opacity=".65"/>
<rect x="0" y="405" width="800" height="95" fill="#05010a" fill-opacity=".86"/><text x="42" y="447" fill="#ffd700" font-size="28" font-family="Arial, sans-serif" font-weight="700">Lançamentos e imóveis</text><text x="42" y="478" fill="#fff" font-size="18" font-family="Arial, sans-serif">Apartamentos, casas e salas comerciais</text></svg>